<svg id="eaVrhdF5Dq21"
     xmlns="http://www.w3.org/2000/svg"
     xmlns:xlink="http://www.w3.org/1999/xlink"
     viewBox="0 0 360 300" shape-rendering="geometricPrecision"
     text-rendering="geometricPrecision">
  <path d="M338,237l-13,25h-24l-12,21h23l-11,20h-24l-38,63.8L178,
  262h-24l-14-25l77-.1L229,262h-21l31,55l32-55h-23l14-25h76ZM244.2,
  137h151.5L348,221.2h-103L239,210l-6,11.2h-103L82,137h151.9L210,
  181h-31l12.2-19.1-64.2.1l19,34h71l22-39l23,39h71l19-34h-63l11,19h-31l-24.8-44Z"
        transform="translate(-58.85-101.9)" fill="#0a7"
        stroke="#0a7" stroke-width="5" stroke-linecap="round" stroke-linejoin="round"/></svg>
